<svg xmlns="http://www.w3.org/2000/svg" viewBox="0 0 38.66 38.66"><defs><style>.cls-1{fill:#ff4438;isolation:isolate;}.cls-2{fill:#fff;}.cls-3{fill:#001135;}</style></defs><title>Recurso 3</title><g id="Capa_2" data-name="Capa 2"><g id="Layer_1" data-name="Layer 1"><circle class="cls-1" cx="19.33" cy="19.33" r="19.33"/><path class="cls-2" d="M8.82,26.11a13,13,0,0,0,1.53,0,8.41,8.41,0,0,0,1.65-.3,9.1,9.1,0,0,0,2.5-1.13,4.23,4.23,0,0,0,.58-.44,4.48,4.48,0,0,1-2.53-.87A4.34,4.34,0,0,1,11,21.2a4.25,4.25,0,0,0,1.88-.07c0-.07-2-.67-2.85-2.15a4.35,4.35,0,0,1-.58-2.14c0-.12.06-.06.09,0a4.41,4.41,0,0,0,1.37.45,3.6,3.6,0,0,0,.49,0,4.5,4.5,0,0,1-1.35-5.87c.27.29.51.57.77.84a12.22,12.22,0,0,0,2.24,1.82,12.39,12.39,0,0,0,3.43,1.52A12.23,12.23,0,0,0,19,16c.16,0,.18-.05.16-.18a4.26,4.26,0,0,1,1.47-4.17,4.18,4.18,0,0,1,3.13-1,4.24,4.24,0,0,1,2.8,1.27.27.27,0,0,0,.27.07,8.55,8.55,0,0,0,2.39-.91l.22-.1a4.49,4.49,0,0,1-1.84,2.36A7.81,7.81,0,0,0,30,12.72a2.11,2.11,0,0,1-.37.55A8.39,8.39,0,0,1,28,14.82a.33.33,0,0,0-.15.32,12.23,12.23,0,0,1-.42,3.56,12.91,12.91,0,0,1-2.27,4.61A11.84,11.84,0,0,1,22.33,26a11.52,11.52,0,0,1-2.67,1.34,13.24,13.24,0,0,1-2.7.63,14.43,14.43,0,0,1-2.63,0,12.1,12.1,0,0,1-3.25-.7,12.83,12.83,0,0,1-2.3-1.11.23.23,0,0,1-.07-.07A.11.11,0,0,1,8.82,26.11Z"/><path class="cls-3" d="M8.83,26.09H8.67s0,0,0,0S8.79,26.06,8.83,26.09Z"/></g></g></svg>