<svg xmlns="http://www.w3.org/2000/svg" viewBox="0 0 38.66 38.66"><defs><style>.cls-1{fill:#ff4438;isolation:isolate;}.cls-2{fill:#001135;}.cls-3{fill:#fff;}</style></defs><title>Recurso 4</title><g id="Capa_2" data-name="Capa 2"><g id="Layer_1" data-name="Layer 1"><circle class="cls-1" cx="19.33" cy="19.33" r="19.33"/><path class="cls-2" d="M8.83,26.09H8.67s0,0,0,0S8.79,26.06,8.83,26.09Z"/><path class="cls-3" d="M24,30.93h-10a6.61,6.61,0,0,1-6.6-6.61v-10a6.62,6.62,0,0,1,6.6-6.61H24a6.62,6.62,0,0,1,6.6,6.61v10A6.61,6.61,0,0,1,24,30.93ZM13.94,9.7a4.63,4.63,0,0,0-4.61,4.62v10a4.62,4.62,0,0,0,4.61,4.62H24a4.62,4.62,0,0,0,4.61-4.62v-10A4.63,4.63,0,0,0,24,9.7Z"/><path class="cls-3" d="M19,25.27a5.95,5.95,0,1,1,5.94-5.95A6,6,0,0,1,19,25.27Zm0-9.9a4,4,0,1,0,3.95,4A4,4,0,0,0,19,15.37Z"/><path class="cls-3" d="M26.57,13a1.43,1.43,0,1,1-1.42-1.43A1.43,1.43,0,0,1,26.57,13Z"/></g></g></svg>