<svg xmlns="http://www.w3.org/2000/svg" viewBox="0 0 38.66 38.66"><defs><style>.cls-1{fill:#ff4438;isolation:isolate;}.cls-2{fill:#fff;}</style></defs><title>Recurso 2</title><g id="Capa_2" data-name="Capa 2"><g id="Layer_1" data-name="Layer 1"><circle class="cls-1" cx="19.33" cy="19.33" r="19.33"/><path class="cls-2" d="M26.34,22.05H8.75a4,4,0,0,1,0-8H26.11a4,4,0,0,1,4,4,3.84,3.84,0,0,1-.32,1.55l1.14.47a5.22,5.22,0,0,0-4.83-7.25H8.75a5.23,5.23,0,0,0,0,10.46H26.11a5.06,5.06,0,0,0,.68-.05Z"/><polygon class="cls-2" points="35.14 22.97 26.39 19.28 29.75 28.16 31.22 25.52 33.74 28.13 34.96 26.95 32.45 24.34 35.14 22.97"/><path class="cls-2" d="M8.46,16.13h1.3l.49,1.9.58-1.91h1.09L12.51,18l.5-1.91h1.28l-1.16,3.8H12l-.61-2-.63,2H9.61Z"/><path class="cls-2" d="M14.73,16.13H16l.49,1.9.58-1.91h1.09L18.78,18l.51-1.91h1.27l-1.16,3.8H18.26l-.62-2-.62,2H15.88Z"/><path class="cls-2" d="M21,16.13h1.3l.49,1.9.58-1.91h1.09L25.05,18l.51-1.91h1.27l-1.16,3.8H24.53l-.62-2-.62,2H22.15Z"/></g></g></svg>