<svg xmlns="http://www.w3.org/2000/svg" viewBox="0 0 38.66 38.66"><defs><style>.cls-1{fill:#ff4438;isolation:isolate;}.cls-2{fill:#fff;}</style></defs><title>Recurso 5</title><g id="Capa_2" data-name="Capa 2"><g id="Layer_1" data-name="Layer 1"><circle class="cls-1" cx="19.33" cy="19.33" r="19.33"/><path class="cls-2" d="M25.12,7.55H13.54A1.93,1.93,0,0,0,11.6,9.48v19.7a1.93,1.93,0,0,0,1.94,1.93H25.12a1.92,1.92,0,0,0,1.93-1.93V9.48A1.92,1.92,0,0,0,25.12,7.55ZM18.05,8.88h2.56a.39.39,0,0,1,0,.77H18.05a.39.39,0,0,1,0-.77Zm1.28,21.6a.77.77,0,1,1,.77-.77A.78.78,0,0,1,19.33,30.48ZM25.89,28H12.77V10.65H25.89Z"/></g></g></svg>