<svg xmlns="http://www.w3.org/2000/svg" viewBox="0 0 178.18 178.18"><defs><style>.cls-1{isolation:isolate;}.cls-2{fill:#ff4438;}.cls-3{fill:#fff;}</style></defs><title>Recurso 1</title><g id="Capa_2" data-name="Capa 2"><g id="Layer_1" data-name="Layer 1"><g class="cls-1"><circle class="cls-2" cx="89.09" cy="89.09" r="89.09"/></g><path class="cls-3" d="M137.28,46.57H116V36.11a1.5,1.5,0,0,0-.87-1.37,1.52,1.52,0,0,0-1.62.22l-5.36,4.59L102.77,35a1.51,1.51,0,0,0-2,0l-5.36,4.59-5.36-4.6a1.51,1.51,0,0,0-2,0l-5.36,4.59-5.36-4.59a1.5,1.5,0,0,0-2,0l-5.36,4.59-5.36-4.59a1.48,1.48,0,0,0-1.61-.23,1.52,1.52,0,0,0-.88,1.37v10.5H40.9a6.2,6.2,0,0,0-6.19,6.2v64.42a6.2,6.2,0,0,0,6.19,6.2h39a15.06,15.06,0,0,1-1.72,6.52,7.06,7.06,0,0,1-6.61,3.55h-3a5.08,5.08,0,1,0,0,10.16h41.15a5.08,5.08,0,1,0,0-10.16h-3.06a7,7,0,0,1-6.6-3.55,14.79,14.79,0,0,1-1.72-6.52h39a6.21,6.21,0,0,0,6.2-6.2V52.77A6.21,6.21,0,0,0,137.28,46.57Zm-72-7.21,3.84,3.3a1.53,1.53,0,0,0,2,0l5.36-4.59,5.35,4.6a1.53,1.53,0,0,0,2,0l5.36-4.59,5.35,4.6a1.53,1.53,0,0,0,2,0l5.36-4.59,5.36,4.59a1.5,1.5,0,0,0,2,0l3.85-3.3,0,54.41H65.22Zm44.41,97.12a2.06,2.06,0,0,1,0,4.12H68.52a2.06,2.06,0,0,1,0-4.12Zm-10.74-3H79.25a11.17,11.17,0,0,0,1.53-2,18.29,18.29,0,0,0,2.14-8H95.26a18.29,18.29,0,0,0,2.14,8A11.17,11.17,0,0,0,98.93,133.46Zm41.53-16.27a3.19,3.19,0,0,1-3.18,3.18H40.9a3.18,3.18,0,0,1-3.17-3.18v-8H140.46Zm0-11H37.73V52.77a3.18,3.18,0,0,1,3.17-3.18H62.23l0,44.21H55a1.51,1.51,0,0,0,0,3H89.07l25.36,0h0l.22,0h8.55a1.51,1.51,0,0,0,0-3h-7.26l0-44.21h21.31a3.19,3.19,0,0,1,3.18,3.18Z"/><path class="cls-3" d="M89.09,117.14a2.38,2.38,0,1,0-2.38-2.38A2.37,2.37,0,0,0,89.09,117.14Z"/><path class="cls-3" d="M72.19,54.44H106a1.51,1.51,0,1,0,0-3H72.19a1.51,1.51,0,1,0,0,3Z"/><path class="cls-3" d="M99.85,68.2h2.39a2.25,2.25,0,0,1,2.25,2.25h3a5.29,5.29,0,0,0-5-5.27V63.86a1.51,1.51,0,0,0-1.51-1.51h0a1.51,1.51,0,0,0-1.51,1.5v1.34a5.27,5.27,0,0,0,.31,10.53h2.39a2.25,2.25,0,0,1,0,4.5H99.84A2.24,2.24,0,0,1,97.6,78h-3a5.29,5.29,0,0,0,5,5.27v1.33a1.49,1.49,0,0,0,1.5,1.51h0a1.5,1.5,0,0,0,1.51-1.51V83.23a5.27,5.27,0,0,0-.31-10.53H99.85a2.25,2.25,0,0,1-1.59-3.84A2.22,2.22,0,0,1,99.85,68.2Z"/><path class="cls-3" d="M87.46,65.06H72.2a1.51,1.51,0,0,0,0,3H87.46a1.51,1.51,0,1,0,0-3Z"/><path class="cls-3" d="M87.46,72.75H72.19a1.51,1.51,0,1,0,0,3H87.46a1.51,1.51,0,1,0,0-3Z"/><path class="cls-3" d="M87.45,80.44H72.18a1.51,1.51,0,0,0,0,3H87.45a1.51,1.51,0,0,0,0-3Z"/></g></g></svg>